<?xml version="1.0" encoding="UTF-8" standalone="no"?>
<!-- Created with Inkscape (http://www.inkscape.org/) -->

<svg
   xmlns:dc="http://purl.org/dc/elements/1.1/"
   xmlns:cc="http://creativecommons.org/ns#"
   xmlns:rdf="http://www.w3.org/1999/02/22-rdf-syntax-ns#"
   xmlns:svg="http://www.w3.org/2000/svg"
   xmlns="http://www.w3.org/2000/svg"
   xmlns:xlink="http://www.w3.org/1999/xlink"
   xmlns:sodipodi="http://sodipodi.sourceforge.net/DTD/sodipodi-0.dtd"
   xmlns:inkscape="http://www.inkscape.org/namespaces/inkscape"
   width="85.425217mm"
   height="96.258888mm"
   viewBox="0 0 85.425217 96.258886"
   version="1.1"
   id="svg8"
   sodipodi:docname="certified.svg"
   inkscape:version="0.92.5 (2060ec1f9f, 2020-04-08)">
  <defs
     id="defs2">
    <linearGradient
       inkscape:collect="always"
       id="linearGradient3278">
      <stop
         style="stop-color:#000000;stop-opacity:1;"
         offset="0"
         id="stop3274" />
      <stop
         style="stop-color:#000000;stop-opacity:0;"
         offset="1"
         id="stop3276" />
    </linearGradient>
    <linearGradient
       inkscape:collect="always"
       id="linearGradient3270">
      <stop
         style="stop-color:#dacf2f;stop-opacity:1;"
         offset="0"
         id="stop3266" />
      <stop
         style="stop-color:#dacf2f;stop-opacity:0;"
         offset="1"
         id="stop3268" />
    </linearGradient>
    <linearGradient
       inkscape:collect="always"
       id="linearGradient3234">
      <stop
         style="stop-color:#000000;stop-opacity:1;"
         offset="0"
         id="stop3230" />
      <stop
         style="stop-color:#000000;stop-opacity:0;"
         offset="1"
         id="stop3232" />
    </linearGradient>
    <linearGradient
       inkscape:collect="always"
       id="linearGradient1099">
      <stop
         style="stop-color:#000000;stop-opacity:1;"
         offset="0"
         id="stop1095" />
      <stop
         style="stop-color:#000000;stop-opacity:0;"
         offset="1"
         id="stop1097" />
    </linearGradient>
    <linearGradient
       inkscape:collect="always"
       xlink:href="#linearGradient3234"
       id="linearGradient3238"
       x1="113.095"
       y1="182.45474"
       x2="144.45724"
       y2="182.45474"
       gradientUnits="userSpaceOnUse" />
    <radialGradient
       inkscape:collect="always"
       xlink:href="#linearGradient1099"
       id="radialGradient3503"
       gradientUnits="userSpaceOnUse"
       cx="107.72322"
       cy="128.42261"
       fx="107.72322"
       fy="128.42261"
       r="43.11594" />
    <linearGradient
       inkscape:collect="always"
       xlink:href="#linearGradient3270"
       id="linearGradient3505"
       gradientUnits="userSpaceOnUse"
       gradientTransform="matrix(0.74115359,0,0,0.47892456,16.40422,27.884351)"
       x1="131.95049"
       y1="229.35175"
       x2="123.40401"
       y2="161.00098" />
    <linearGradient
       inkscape:collect="always"
       xlink:href="#linearGradient3278"
       id="linearGradient3507"
       gradientUnits="userSpaceOnUse"
       gradientTransform="matrix(0.74115359,0,0,0.47892456,16.40422,27.884351)"
       x1="131.95049"
       y1="229.35175"
       x2="123.40401"
       y2="161.00098" />
    <linearGradient
       inkscape:collect="always"
       xlink:href="#linearGradient3270"
       id="linearGradient3509"
       gradientUnits="userSpaceOnUse"
       gradientTransform="matrix(-0.74115359,0,0,0.47892456,176.19459,27.956384)"
       x1="131.95049"
       y1="229.35175"
       x2="123.40401"
       y2="161.00098" />
    <linearGradient
       inkscape:collect="always"
       xlink:href="#linearGradient3278"
       id="linearGradient3511"
       gradientUnits="userSpaceOnUse"
       gradientTransform="matrix(-0.74115359,0,0,0.47892456,176.19459,27.956384)"
       x1="131.95049"
       y1="229.35175"
       x2="123.40401"
       y2="161.00098" />
    <radialGradient
       inkscape:collect="always"
       xlink:href="#linearGradient3234"
       id="radialGradient3513"
       gradientUnits="userSpaceOnUse"
       cx="107.72322"
       cy="128.42261"
       fx="107.72322"
       fy="128.42261"
       r="43.11594" />
    <radialGradient
       inkscape:collect="always"
       xlink:href="#linearGradient1099"
       id="radialGradient3515"
       gradientUnits="userSpaceOnUse"
       cx="107.72322"
       cy="128.42261"
       fx="107.72322"
       fy="128.42261"
       r="43.11594" />
  </defs>
  <sodipodi:namedview
     id="base"
     pagecolor="#ffffff"
     bordercolor="#666666"
     borderopacity="1.0"
     inkscape:pageopacity="0.0"
     inkscape:pageshadow="2"
     inkscape:zoom="1.1609014"
     inkscape:cx="133.61383"
     inkscape:cy="70.15225"
     inkscape:document-units="mm"
     inkscape:current-layer="layer1"
     showgrid="false"
     inkscape:window-width="1680"
     inkscape:window-height="986"
     inkscape:window-x="0"
     inkscape:window-y="27"
     inkscape:window-maximized="1"
     inkscape:lockguides="false"
     showguides="true"
     inkscape:guide-bbox="true"
     fit-margin-top="0"
     fit-margin-left="0"
     fit-margin-right="0"
     fit-margin-bottom="0"
     inkscape:snap-global="false"
     inkscape:measure-start="0,0"
     inkscape:measure-end="0,0">
    <sodipodi:guide
       position="136.98842,-18.353526"
       orientation="0,1"
       id="guide972"
       inkscape:locked="false" />
    <sodipodi:guide
       position="144.551,-17.635866"
       orientation="1,0"
       id="guide974"
       inkscape:locked="false" />
    <sodipodi:guide
       position="144.10082,-18.353526"
       orientation="0,1"
       id="guide976"
       inkscape:locked="false" />
  </sodipodi:namedview>
  <metadata
     id="metadata5">
    <rdf:RDF>
      <cc:Work
         rdf:about="">
        <dc:format>image/svg+xml</dc:format>
        <dc:type
           rdf:resource="http://purl.org/dc/dcmitype/StillImage" />
        <dc:title></dc:title>
      </cc:Work>
    </rdf:RDF>
  </metadata>
  <g
     inkscape:label="Ebene 1"
     inkscape:groupmode="layer"
     id="layer1"
     transform="translate(-53.511597,-31.291558)">
    <path
       transform="rotate(4.9826222,727.3436,-30.931871)"
       inkscape:transform-center-y="-1.9126996e-06"
       d="m 139.8512,155.25892 -10.10054,-1.61084 0.23521,10.22547 -9.10841,-4.65324 -2.93615,9.79768 -7.22467,-7.24014 -5.8201,8.41083 -4.63375,-9.11834 -8.134329,6.20067 -1.589232,-10.10396 -9.652322,3.38354 1.610846,-10.10054 -10.225475,0.2352 4.653243,-9.1084 -9.797686,-2.93615 7.240148,-7.22468 -8.410832,-5.8201 9.118337,-4.63374 -6.200667,-8.13433 10.103959,-1.58923 -3.383537,-9.65233 10.100536,1.61085 -0.235204,-10.225475 9.108402,4.653243 2.936153,-9.797687 7.22467,7.240149 5.8201,-8.410833 4.63375,9.118337 8.13433,-6.200667 1.58923,10.10396 9.65233,-3.383538 -1.61085,10.100541 10.22547,-0.23521 -4.65324,9.1084 9.79769,2.93616 -7.24015,7.22467 8.41083,5.8201 -9.11834,4.63374 6.20067,8.13434 -10.10396,1.58923 z"
       inkscape:randomized="0"
       inkscape:rounded="0"
       inkscape:flatsided="false"
       sodipodi:arg2="0.85297403"
       sodipodi:arg1="0.6958944"
       sodipodi:r2="33.489288"
       sodipodi:r1="41.861614"
       sodipodi:cy="128.42261"
       sodipodi:cx="107.72322"
       sodipodi:sides="20"
       id="path3463"
       style="opacity:1;fill:#3139ae;fill-opacity:1;stroke:#000000;stroke-width:2.70000005;stroke-linejoin:round;stroke-miterlimit:4;stroke-dasharray:none;stroke-dashoffset:0;stroke-opacity:1"
       sodipodi:type="star" />
    <path
       sodipodi:type="star"
       style="opacity:1;fill:#ffffff;fill-opacity:1;stroke:url(#radialGradient3503);stroke-width:4.13648129;stroke-linejoin:round;stroke-miterlimit:4;stroke-dasharray:none;stroke-dashoffset:0;stroke-opacity:1"
       id="path3465"
       sodipodi:sides="20"
       sodipodi:cx="107.72322"
       sodipodi:cy="128.42261"
       sodipodi:r1="41.861614"
       sodipodi:r2="33.489288"
       sodipodi:arg1="0.6958944"
       sodipodi:arg2="0.85297403"
       inkscape:flatsided="false"
       inkscape:rounded="0"
       inkscape:randomized="0"
       d="m 139.8512,155.25892 -10.10054,-1.61084 0.23521,10.22547 -9.10841,-4.65324 -2.93615,9.79768 -7.22467,-7.24014 -5.8201,8.41083 -4.63375,-9.11834 -8.134329,6.20067 -1.589232,-10.10396 -9.652322,3.38354 1.610846,-10.10054 -10.225475,0.2352 4.653243,-9.1084 -9.797686,-2.93615 7.240148,-7.22468 -8.410832,-5.8201 9.118337,-4.63374 -6.200667,-8.13433 10.103959,-1.58923 -3.383537,-9.65233 10.100536,1.61085 -0.235204,-10.225475 9.108402,4.653243 2.936153,-9.797687 7.22467,7.240149 5.8201,-8.410833 4.63375,9.118337 8.13433,-6.200667 1.58923,10.10396 9.65233,-3.383538 -1.61085,10.100541 10.22547,-0.23521 -4.65324,9.1084 9.79769,2.93616 -7.24015,7.22467 8.41083,5.8201 -9.11834,4.63374 6.20067,8.13434 -10.10396,1.58923 z"
       transform="matrix(0.91179141,0.23992815,-0.23992815,0.91179141,28.47343,-69.221188)" />
    <path
       style="fill:url(#linearGradient3505);fill-opacity:1;fill-rule:evenodd;stroke:url(#linearGradient3507);stroke-width:2.06189632;stroke-linecap:butt;stroke-linejoin:miter;stroke-miterlimit:4;stroke-dasharray:none;stroke-opacity:1"
       d="m 118.23795,103.5295 4.02842,21.71679 -10.69674,-5.01985 -9.50822,5.51199 -0.88639,-17.86178"
       id="path3467"
       inkscape:connector-curvature="0"
       sodipodi:nodetypes="ccccc" />
    <path
       sodipodi:nodetypes="ccccc"
       inkscape:connector-curvature="0"
       id="path3469"
       d="m 74.360874,103.60153 -4.02843,21.71679 10.69675,-5.01985 9.50821,5.51199 0.88639,-17.86178"
       style="fill:url(#linearGradient3509);fill-opacity:1;fill-rule:evenodd;stroke:url(#linearGradient3511);stroke-width:2.06189632;stroke-linecap:butt;stroke-linejoin:miter;stroke-miterlimit:4;stroke-dasharray:none;stroke-opacity:1" />
    <g
       transform="matrix(2.9125119,0,0,2.9125119,-465.21301,-369.80874)"
       id="g3479"
       style="color:#000000;font-style:normal;font-variant:normal;font-weight:bold;font-stretch:normal;font-size:4.23333311px;line-height:125%;font-family:'Abyssinica SIL';-inkscape-font-specification:'Abyssinica SIL Bold';text-indent:0;text-align:start;text-decoration:none;text-decoration-line:none;text-decoration-style:solid;text-decoration-color:#000000;letter-spacing:0px;word-spacing:0px;text-transform:none;writing-mode:lr-tb;direction:ltr;baseline-shift:baseline;text-anchor:start;white-space:normal;clip-rule:nonzero;display:inline;overflow:visible;visibility:visible;opacity:1;isolation:auto;mix-blend-mode:normal;color-interpolation:sRGB;color-interpolation-filters:linearRGB;solid-color:#000000;solid-opacity:1;fill:#000000;fill-opacity:1;fill-rule:nonzero;stroke:none;stroke-width:0.10588893px;stroke-linecap:butt;stroke-linejoin:miter;stroke-miterlimit:4;stroke-dasharray:none;stroke-dashoffset:0;stroke-opacity:1;color-rendering:auto;image-rendering:auto;shape-rendering:auto;text-rendering:auto;enable-background:accumulate"
       aria-label="HPC CF">
      <path
         inkscape:connector-curvature="0"
         id="path3473"
         style="font-style:normal;font-variant:normal;font-weight:bold;font-stretch:normal;font-family:'Courier 10 Pitch';-inkscape-font-specification:'Courier 10 Pitch Bold';fill:#181c57;stroke-width:0.10588893px"
         d="m 187.55319,144.89669 h -0.67733 v -0.47413 c 0.0127,0 0.0212,0 0.0339,0 0.14816,0 0.2286,-0.0804 0.2286,-0.2286 0,-0.16934 -0.0847,-0.2286 -0.26247,-0.2286 h -0.5334 c -0.1778,0 -0.25823,0.0593 -0.25823,0.2286 0,0.14816 0.0762,0.2286 0.22436,0.2286 0.0127,0 0.0212,0 0.0339,0 v 1.54093 c -0.0127,0 -0.0254,0 -0.0339,0 -0.14816,0 -0.22436,0.0762 -0.22436,0.22437 0,0.17356 0.0847,0.2286 0.25823,0.2286 h 0.5334 c 0.17357,0 0.26247,-0.055 0.26247,-0.2286 0,-0.14817 -0.0804,-0.22437 -0.2286,-0.22437 -0.008,0 -0.0212,0 -0.0339,0 v -0.6096 h 0.67733 v 0.6096 c -0.0127,0 -0.0254,0 -0.0339,0 -0.14817,0 -0.2286,0.0762 -0.2286,0.22437 0,0.17356 0.0889,0.2286 0.26246,0.2286 h 0.5334 c 0.17357,0 0.254,-0.055 0.254,-0.2286 0,-0.14817 -0.072,-0.22437 -0.22013,-0.22437 -0.008,0 -0.0212,0 -0.0339,0 v -1.54093 c 0.0127,0 0.0212,0 0.0339,0 0.14817,0 0.22013,-0.0804 0.22013,-0.2286 0,-0.16934 -0.0762,-0.2286 -0.254,-0.2286 h -0.5334 c -0.1778,0 -0.26246,0.0593 -0.26246,0.2286 0,0.14816 0.0804,0.2286 0.2286,0.2286 0.0127,0 0.0212,0 0.0339,0 z" />
      <path
         inkscape:connector-curvature="0"
         id="path3475"
         style="font-style:normal;font-variant:normal;font-weight:bold;font-stretch:normal;font-family:'Courier 10 Pitch';-inkscape-font-specification:'Courier 10 Pitch Bold';fill:#181c57;stroke-width:0.10588893px"
         d="m 189.48174,144.43949 h 0.2921 c 0.32597,0 0.49107,0.10583 0.49107,0.31327 0,0.20743 -0.1651,0.32173 -0.49107,0.32173 h -0.2921 z m 0.35137,-0.47413 h -0.85514 c -0.16933,0 -0.254,0.0635 -0.254,0.2286 0,0.14816 0.0804,0.2286 0.22437,0.2286 0.008,0 0.0212,0 0.0296,0 v 1.54093 c -0.0127,0 -0.0212,0 -0.0339,0 -0.1397,0 -0.22014,0.0804 -0.22014,0.22437 0,0.16933 0.0847,0.2286 0.254,0.2286 h 0.7112 c 0.16934,0 0.254,-0.0593 0.254,-0.2286 0,-0.16934 -0.0847,-0.22437 -0.254,-0.22437 h -0.20743 v -0.42333 h 0.35137 c 0.68156,0 1.02446,-0.2794 1.02446,-0.80857 0,-0.49953 -0.3429,-0.76623 -1.02446,-0.76623 z" />
      <path
         inkscape:connector-curvature="0"
         id="path3477"
         style="font-style:normal;font-variant:normal;font-weight:bold;font-stretch:normal;font-family:'Courier 10 Pitch';-inkscape-font-specification:'Courier 10 Pitch Bold';fill:#181c57;stroke-width:0.10588893px"
         d="m 192.95545,144.03309 c -0.2032,-0.0889 -0.3937,-0.13547 -0.59266,-0.13547 -0.70697,0 -1.19804,0.56727 -1.19804,1.29117 0,0.762 0.4826,1.2954 1.21074,1.2954 0.5715,0 1.0414,-0.28787 1.0414,-0.508 0,-0.13547 -0.0847,-0.23707 -0.1905,-0.23707 -0.18627,0 -0.4191,0.28787 -0.80857,0.28787 -0.42333,0 -0.6604,-0.2921 -0.6604,-0.8382 0,-0.55033 0.23707,-0.8382 0.65617,-0.8382 0.3048,0 0.4318,0.127 0.49953,0.3683 0.0381,0.13123 0.0847,0.19473 0.21167,0.19473 0.17356,0 0.2159,-0.0635 0.2159,-0.2413 l -0.004,-0.53763 c 0,-0.1778 -0.055,-0.23283 -0.18626,-0.23283 -0.0931,0 -0.14394,0.0381 -0.19474,0.13123 z" />
    </g>
    <g
       style="stroke-width:1.36003006"
       transform="matrix(0.85705222,0,0,0.85705222,2.4347263,-45.571753)"
       id="g3489">
      <path
         sodipodi:nodetypes="cscsccccscsccsccccscc"
         inkscape:connector-curvature="0"
         d="m 116.70028,116.21541 c -0.0622,-0.34475 -0.0965,-0.73277 -0.0965,-1.12891 0,-1.35418 0.34928,-2.39419 1.04783,-3.12004 0.69852,-0.72587 1.71121,-1.08881 3.03807,-1.08881 0.9678,0 1.7561,0.19506 2.36491,0.58539 0.50903,0.32318 0.89116,0.7743 1.14648,1.35374 l -1.85693,0.0136 c -0.087,-0.0819 -0.18385,-0.157 -0.29055,-0.22497 -0.37463,-0.24604 -0.81756,-0.36878 -1.32877,-0.36878 -0.78048,0 -1.37369,0.24196 -1.77955,0.72584 -0.40195,0.48392 -0.60292,1.19222 -0.60292,2.12492 0,0.39579 0.0499,0.81222 0.122,1.12983 m 0.7481,1.28078 c 0.40086,0.35658 0.89052,0.51028 1.55322,0.51028 l -1e-4,7.5e-4 c 0.63021,0 1.14903,-0.11792 1.54656,-0.5006 l 1.89468,-0.007 c -0.30517,0.55216 -0.70283,0.98058 -1.19341,1.2853 -0.6244,0.38636 -1.37369,0.57951 -2.24783,0.57951 -1.32683,0 -2.35318,-0.37462 -3.07906,-1.12391 -0.20865,-0.21783 -0.3872,-0.46033 -0.53557,-0.72795"
         style="color:#000000;font-style:normal;font-variant:normal;font-weight:bold;font-stretch:normal;font-size:3.52777767px;line-height:123.00000191%;font-family:Arimo;-inkscape-font-specification:'Arimo Bold';text-indent:0;text-align:start;text-decoration:none;text-decoration-line:none;text-decoration-style:solid;text-decoration-color:#000000;letter-spacing:0px;word-spacing:0px;text-transform:none;writing-mode:lr-tb;direction:ltr;baseline-shift:baseline;text-anchor:start;white-space:normal;clip-rule:nonzero;display:inline;overflow:visible;visibility:visible;opacity:1;isolation:auto;mix-blend-mode:normal;color-interpolation:sRGB;color-interpolation-filters:linearRGB;solid-color:#000000;solid-opacity:1;fill:#181c57;fill-opacity:1;fill-rule:nonzero;stroke:none;stroke-width:0.35984123px;stroke-linecap:butt;stroke-linejoin:miter;stroke-miterlimit:4;stroke-dasharray:none;stroke-dashoffset:0;stroke-opacity:1;color-rendering:auto;image-rendering:auto;shape-rendering:auto;text-rendering:auto;enable-background:accumulate"
         id="path3481" />
      <path
         sodipodi:nodetypes="ccccccccccccc"
         inkscape:connector-curvature="0"
         d="m 125.57509,116.2197 v -5.23249 l 6.08397,0.0136 v 1.33464 h -4.35518 v 2.55222 h 4.22054 v 1.33464 h -4.22054 m 0,1.28836 v 1.73802 h -1.72685 l -0.002,-1.73802"
         style="color:#000000;font-style:normal;font-variant:normal;font-weight:bold;font-stretch:normal;font-size:3.52777767px;line-height:123.00000191%;font-family:Arimo;-inkscape-font-specification:'Arimo Bold';text-indent:0;text-align:start;text-decoration:none;text-decoration-line:none;text-decoration-style:solid;text-decoration-color:#000000;letter-spacing:0px;word-spacing:0px;text-transform:none;writing-mode:lr-tb;direction:ltr;baseline-shift:baseline;text-anchor:start;white-space:normal;clip-rule:nonzero;display:inline;overflow:visible;visibility:visible;opacity:1;isolation:auto;mix-blend-mode:normal;color-interpolation:sRGB;color-interpolation-filters:linearRGB;solid-color:#000000;solid-opacity:1;fill:#181c57;fill-opacity:1;fill-rule:nonzero;stroke:none;stroke-width:0.35984123px;stroke-linecap:butt;stroke-linejoin:miter;stroke-miterlimit:4;stroke-dasharray:none;stroke-dashoffset:0;stroke-opacity:1;color-rendering:auto;image-rendering:auto;shape-rendering:auto;text-rendering:auto;enable-background:accumulate"
         id="path3483" />
      <text
         id="text3487"
         y="130.22078"
         x="100.16871"
         style="color:#000000;font-style:normal;font-variant:normal;font-weight:bold;font-stretch:normal;font-size:6.92776251px;line-height:125%;font-family:'Abyssinica SIL';-inkscape-font-specification:'Abyssinica SIL Bold';text-indent:0;text-align:start;text-decoration:none;text-decoration-line:none;text-decoration-style:solid;text-decoration-color:#000000;letter-spacing:0px;word-spacing:0px;text-transform:none;writing-mode:lr-tb;direction:ltr;baseline-shift:baseline;text-anchor:start;white-space:normal;clip-rule:nonzero;display:inline;overflow:visible;visibility:visible;opacity:1;isolation:auto;mix-blend-mode:normal;color-interpolation:sRGB;color-interpolation-filters:linearRGB;solid-color:#000000;solid-opacity:1;fill:#000000;fill-opacity:1;fill-rule:nonzero;stroke:none;stroke-width:0.35984129px;stroke-linecap:butt;stroke-linejoin:miter;stroke-miterlimit:4;stroke-dasharray:none;stroke-dashoffset:0;stroke-opacity:1;color-rendering:auto;image-rendering:auto;shape-rendering:auto;text-rendering:auto;enable-background:accumulate"
         xml:space="preserve"><tspan
           style="stroke-width:0.35984129px"
           y="136.27492"
           x="100.16871"
           id="tspan3485"
           sodipodi:role="line" /></text>
    </g>
    <text
       xml:space="preserve"
       style="color:#000000;font-style:normal;font-variant:normal;font-weight:bold;font-stretch:normal;font-size:10.98147488px;line-height:125%;font-family:'Abyssinica SIL';-inkscape-font-specification:'Abyssinica SIL Bold';text-indent:0;text-align:start;text-decoration:none;text-decoration-line:none;text-decoration-style:solid;text-decoration-color:#000000;letter-spacing:0px;word-spacing:0px;text-transform:none;writing-mode:lr-tb;direction:ltr;baseline-shift:baseline;text-anchor:start;white-space:normal;clip-rule:nonzero;display:inline;overflow:visible;visibility:visible;opacity:1;isolation:auto;mix-blend-mode:normal;color-interpolation:sRGB;color-interpolation-filters:linearRGB;solid-color:#000000;solid-opacity:1;fill:#999999;fill-opacity:1;fill-rule:nonzero;stroke:none;stroke-width:0.12026954;stroke-linecap:butt;stroke-linejoin:miter;stroke-miterlimit:4;stroke-dasharray:none;stroke-dashoffset:0;stroke-opacity:1;color-rendering:auto;image-rendering:auto;shape-rendering:auto;text-rendering:auto;enable-background:accumulate"
       x="96.223351"
       y="73.771599"
       id="text916"><tspan
         sodipodi:role="line"
         id="tspan912"
         x="96.081352"
         y="73.771599"
         style="font-style:normal;font-variant:normal;font-weight:bold;font-stretch:normal;font-family:Arimo;-inkscape-font-specification:'Arimo Bold';text-align:center;letter-spacing:-0.28400362px;word-spacing:-0.28400362px;text-anchor:middle;fill:#999999;stroke:none;stroke-width:0.12026954;stroke-miterlimit:4;stroke-dasharray:none;stroke-opacity:1">Endorsed</tspan><tspan
         sodipodi:role="line"
         x="96.221931"
         y="87.793396"
         style="font-style:normal;font-variant:normal;font-weight:bold;font-stretch:normal;font-family:Arimo;-inkscape-font-specification:'Arimo Bold';text-align:center;letter-spacing:-0.00284003px;word-spacing:0.00284003px;text-anchor:middle;fill:#999999;stroke:none;stroke-width:0.12026954;stroke-miterlimit:4;stroke-dasharray:none;stroke-opacity:1"
         id="tspan914">Training</tspan></text>
    <text
       id="text3497"
       y="73.190125"
       x="95.641884"
       style="color:#000000;font-style:normal;font-variant:normal;font-weight:bold;font-stretch:normal;font-size:10.98147488px;line-height:125%;font-family:'Abyssinica SIL';-inkscape-font-specification:'Abyssinica SIL Bold';text-indent:0;text-align:start;text-decoration:none;text-decoration-line:none;text-decoration-style:solid;text-decoration-color:#000000;letter-spacing:0px;word-spacing:0px;text-transform:none;writing-mode:lr-tb;direction:ltr;baseline-shift:baseline;text-anchor:start;white-space:normal;clip-rule:nonzero;display:inline;overflow:visible;visibility:visible;opacity:1;isolation:auto;mix-blend-mode:normal;color-interpolation:sRGB;color-interpolation-filters:linearRGB;solid-color:#000000;solid-opacity:1;fill:#000000;fill-opacity:1;fill-rule:nonzero;stroke:none;stroke-width:0.12026954;stroke-linecap:butt;stroke-linejoin:miter;stroke-miterlimit:4;stroke-dasharray:none;stroke-dashoffset:0;stroke-opacity:1;color-rendering:auto;image-rendering:auto;shape-rendering:auto;text-rendering:auto;enable-background:accumulate"
       xml:space="preserve"><tspan
         style="font-style:normal;font-variant:normal;font-weight:bold;font-stretch:normal;font-family:Arimo;-inkscape-font-specification:'Arimo Bold';text-align:center;letter-spacing:-0.28400362px;word-spacing:-0.28400362px;text-anchor:middle;stroke:none;stroke-width:0.12026954;stroke-miterlimit:4;stroke-dasharray:none;stroke-opacity:1"
         y="73.190125"
         x="95.499886"
         id="tspan3493"
         sodipodi:role="line">Endorsed</tspan><tspan
         id="tspan3495"
         style="font-style:normal;font-variant:normal;font-weight:bold;font-stretch:normal;font-family:Arimo;-inkscape-font-specification:'Arimo Bold';text-align:center;letter-spacing:-0.00284003px;word-spacing:0.00284003px;text-anchor:middle;stroke:none;stroke-width:0.12026954;stroke-miterlimit:4;stroke-dasharray:none;stroke-opacity:1"
         y="87.211922"
         x="95.640465"
         sodipodi:role="line">Training</tspan></text>
    <g
       id="g1021">
      <path
         inkscape:connector-curvature="0"
         id="path1009"
         d="m 69.298288,59.742848 6.89261,3.283104 6.73044,-3.205855 v 0"
         style="fill:none;fill-opacity:1;fill-rule:evenodd;stroke:#bbbbbb;stroke-width:0.87858492;stroke-linecap:butt;stroke-linejoin:miter;stroke-miterlimit:4;stroke-dasharray:none;stroke-opacity:1" />
      <path
         style="fill:none;fill-opacity:1;fill-rule:evenodd;stroke:#bbbbbb;stroke-width:0.87858492;stroke-linecap:butt;stroke-linejoin:miter;stroke-miterlimit:4;stroke-dasharray:none;stroke-opacity:1"
         d="m 82.596968,59.742848 6.89262,3.283104 6.73043,-3.205855 v 0"
         id="path1011"
         inkscape:connector-curvature="0" />
      <path
         style="fill:none;fill-opacity:1;fill-rule:evenodd;stroke:#bbbbbb;stroke-width:0.87858492;stroke-linecap:butt;stroke-linejoin:miter;stroke-miterlimit:4;stroke-dasharray:none;stroke-opacity:1"
         d="m 95.733488,59.742848 6.892612,3.283104 6.73044,-3.205855 v 0"
         id="path1013"
         inkscape:connector-curvature="0" />
      <path
         inkscape:connector-curvature="0"
         id="path1015"
         d="m 109.03217,59.742848 6.89262,3.283104 6.73043,-3.205855 v 0"
         style="fill:none;fill-opacity:1;fill-rule:evenodd;stroke:#bbbbbb;stroke-width:0.87858492;stroke-linecap:butt;stroke-linejoin:miter;stroke-miterlimit:4;stroke-dasharray:none;stroke-opacity:1" />
    </g>
    <g
       id="g1031"
       transform="translate(0.11395599,0.91164791)"
       style="stroke:#e3e3e3;stroke-opacity:1">
      <path
         style="fill:none;fill-opacity:1;fill-rule:evenodd;stroke:#e3e3e3;stroke-width:0.87858492;stroke-linecap:butt;stroke-linejoin:miter;stroke-miterlimit:4;stroke-dasharray:none;stroke-opacity:1"
         d="m 68.95642,59.514936 7.234478,3.511016 6.73044,-3.205855 v 0"
         id="path1023"
         inkscape:connector-curvature="0"
         sodipodi:nodetypes="cccc" />
      <path
         inkscape:connector-curvature="0"
         id="path1025"
         d="m 82.596968,59.742848 6.89262,3.283104 6.73043,-3.205855 v 0"
         style="fill:none;fill-opacity:1;fill-rule:evenodd;stroke:#e3e3e3;stroke-width:0.87858492;stroke-linecap:butt;stroke-linejoin:miter;stroke-miterlimit:4;stroke-dasharray:none;stroke-opacity:1" />
      <path
         inkscape:connector-curvature="0"
         id="path1027"
         d="m 95.733488,59.742848 6.892612,3.283104 6.73044,-3.205855 v 0"
         style="fill:none;fill-opacity:1;fill-rule:evenodd;stroke:#e3e3e3;stroke-width:0.87858492;stroke-linecap:butt;stroke-linejoin:miter;stroke-miterlimit:4;stroke-dasharray:none;stroke-opacity:1" />
      <path
         style="fill:none;fill-opacity:1;fill-rule:evenodd;stroke:#e3e3e3;stroke-width:0.87858492;stroke-linecap:butt;stroke-linejoin:miter;stroke-miterlimit:4;stroke-dasharray:none;stroke-opacity:1"
         d="m 109.03217,59.742848 6.89262,3.283104 6.73043,-3.205855 v 0"
         id="path1029"
         inkscape:connector-curvature="0" />
    </g>
    <g
       id="g1051"
       transform="translate(0,-0.91164793)"
       style="stroke:#9ca2ff;stroke-opacity:1">
      <path
         style="fill:none;fill-opacity:1;fill-rule:evenodd;stroke:#c5c9ff;stroke-width:0.87858492;stroke-linecap:butt;stroke-linejoin:miter;stroke-miterlimit:4;stroke-dasharray:none;stroke-opacity:1"
         d="m 69.697134,59.913782 6.89261,3.283104 6.331594,-3.376789 v 0"
         id="path1043"
         inkscape:connector-curvature="0"
         sodipodi:nodetypes="cccc" />
      <path
         inkscape:connector-curvature="0"
         id="path1045"
         d="m 82.596968,59.742848 6.89262,3.283104 6.73043,-3.205855 v 0"
         style="fill:none;fill-opacity:1;fill-rule:evenodd;stroke:#c5c9ff;stroke-width:0.87858492;stroke-linecap:butt;stroke-linejoin:miter;stroke-miterlimit:4;stroke-dasharray:none;stroke-opacity:1" />
      <path
         inkscape:connector-curvature="0"
         id="path1047"
         d="m 95.733488,59.742848 6.892612,3.283104 6.73044,-3.205855 v 0"
         style="fill:none;fill-opacity:1;fill-rule:evenodd;stroke:#c5c9ff;stroke-width:0.87858492;stroke-linecap:butt;stroke-linejoin:miter;stroke-miterlimit:4;stroke-dasharray:none;stroke-opacity:1" />
      <path
         style="fill:none;fill-opacity:1;fill-rule:evenodd;stroke:#c5c9ff;stroke-width:0.87858492;stroke-linecap:butt;stroke-linejoin:miter;stroke-miterlimit:4;stroke-dasharray:none;stroke-opacity:1"
         d="m 109.03217,59.742848 6.89262,3.283104 6.50252,-3.034921"
         id="path1049"
         inkscape:connector-curvature="0"
         sodipodi:nodetypes="ccc" />
    </g>
    <path
       inkscape:transform-center-x="-1.2918183e-06"
       transform="matrix(0.24395305,0.11070202,-0.11070202,0.24395305,109.17009,56.181749)"
       inkscape:transform-center-y="3.7544867e-06"
       d="m 139.8512,155.25892 -10.10054,-1.61084 0.23521,10.22547 -9.10841,-4.65324 -2.93615,9.79768 -7.22467,-7.24014 -5.8201,8.41083 -4.63375,-9.11834 -8.134329,6.20067 -1.589232,-10.10396 -9.652322,3.38354 1.610846,-10.10054 -10.225475,0.2352 4.653243,-9.1084 -9.797686,-2.93615 7.240148,-7.22468 -8.410832,-5.8201 9.118337,-4.63374 -6.200667,-8.13433 10.103959,-1.58923 -3.383537,-9.65233 10.100536,1.61085 -0.235204,-10.225475 9.108402,4.653243 2.936153,-9.797687 7.22467,7.240149 5.8201,-8.410833 4.63375,9.118337 8.13433,-6.200667 1.58923,10.10396 9.65233,-3.383538 -1.61085,10.100541 10.22547,-0.23521 -4.65324,9.1084 9.79769,2.93616 -7.24015,7.22467 8.41083,5.8201 -9.11834,4.63374 6.20067,8.13434 -10.10396,1.58923 z"
       inkscape:randomized="0"
       inkscape:rounded="0"
       inkscape:flatsided="false"
       sodipodi:arg2="0.85297403"
       sodipodi:arg1="0.6958944"
       sodipodi:r2="33.489288"
       sodipodi:r1="41.861614"
       sodipodi:cy="128.42261"
       sodipodi:cx="107.72322"
       sodipodi:sides="20"
       id="path3471"
       style="opacity:1;fill:#dacf2f;fill-opacity:1;stroke:url(#radialGradient3513);stroke-width:10.07855415;stroke-linejoin:round;stroke-miterlimit:4;stroke-dasharray:none;stroke-dashoffset:0;stroke-opacity:1"
       sodipodi:type="star" />
    <path
       inkscape:transform-center-x="8.0978718e-06"
       transform="matrix(0.13518769,0.03557319,-0.03557319,0.13518769,111.22814,78.049669)"
       d="m 139.8512,155.25892 -10.10054,-1.61084 0.23521,10.22547 -9.10841,-4.65324 -2.93615,9.79768 -7.22467,-7.24014 -5.8201,8.41083 -4.63375,-9.11834 -8.134329,6.20067 -1.589232,-10.10396 -9.652322,3.38354 1.610846,-10.10054 -10.225475,0.2352 4.653243,-9.1084 -9.797686,-2.93615 7.240148,-7.22468 -8.410832,-5.8201 9.118337,-4.63374 -6.200667,-8.13433 10.103959,-1.58923 -3.383537,-9.65233 10.100536,1.61085 -0.235204,-10.225475 9.108402,4.653243 2.936153,-9.797687 7.22467,7.240149 5.8201,-8.410833 4.63375,9.118337 8.13433,-6.200667 1.58923,10.10396 9.65233,-3.383538 -1.61085,10.100541 10.22547,-0.23521 -4.65324,9.1084 9.79769,2.93616 -7.24015,7.22467 8.41083,5.8201 -9.11834,4.63374 6.20067,8.13434 -10.10396,1.58923 z"
       inkscape:randomized="0"
       inkscape:rounded="0"
       inkscape:flatsided="false"
       sodipodi:arg2="0.85297403"
       sodipodi:arg1="0.6958944"
       sodipodi:r2="33.489288"
       sodipodi:r1="41.861614"
       sodipodi:cy="128.42261"
       sodipodi:cx="107.72322"
       sodipodi:sides="20"
       id="path3491"
       style="opacity:1;fill:#dacf2f;fill-opacity:1;stroke:url(#radialGradient3515);stroke-width:10.7304039;stroke-linejoin:round;stroke-miterlimit:4;stroke-dasharray:none;stroke-dashoffset:0;stroke-opacity:1"
       sodipodi:type="star" />
  </g>
</svg>
